<svg xmlns="http://www.w3.org/2000/svg" viewBox="0 0 145.17 146.04"><defs><style>.cls-1{fill:#c49aec;}.cls-2{fill:#e8d9f7;}.cls-3{fill:#ede1f9;}</style></defs><g id="Layer_2" data-name="Layer 2"><g id="Layer_1-2" data-name="Layer 1"><path class="cls-1" d="M57.46,55.13c-1,3.86-4,4-7.08,4H11.49V86.72c1.61.09,3.36.27,5.11.27H49.09c8.26,0,8.9.72,9,9.25.2,11.48.49,23,.77,34.42a27.62,27.62,0,0,0,.37,3.15H85.72c.37-4.34,1-8.58,1-12.83q.27-13.74,0-27.49c-.08-4.77,2.08-6.56,6.63-6.53,11.5.09,23,0,34.49,0h5.68V59.08H93.06c-4.12,0-6.18-1.82-6.17-6,0-7.84,0-15.67-.06-23.5,0-3.39,1.23-5.47,4.84-5.53,3.8-.06,6.08,1.94,6.22,5.65C98.11,35.52,98,41.32,98,48h7.77c10.83,0,21.66.14,32.49-.06,4.68-.09,6.87,1.86,6.88,6.39,0,12.66.07,25.33,0,38,0,4.6-2.38,6.53-8.08,6.57-12.66.08-25.32,0-38-.07-.6.2-1.73.4-1.72.59.15,7.87.39,15.73.63,23.6,0,5.16.11,10.32,0,15.47C97.88,144,95.9,146,90.41,146q-17.73.08-35.45,0c-5.72,0-7.77-2-7.82-7.81C47,127,47,115.89,47,104.74V98.15H5.52C2,98.15,0,96.42,0,92.66V53.22C0,49.38,2.2,48,5.75,48c11.63-.2,23.26-.48,34.88-.71H47V8c.26-1.37.52-2.74.79-4.1C48.79.61,51.31,0,54.41,0Q72.34.11,90.25,0c4.16,0,7.35,1.19,7.57,5.87.25,5.16-3.88,5.85-7.47,6-10.12.28-20.24.12-30.36.14L58.9,13c-.28,5.25-.7,10.49-.8,15.75C57.92,36.14,58,43.59,58,51,57.83,52.4,57.65,53.82,57.46,55.13Z"/><path class="cls-2" d="M47.78,3.93C47.51,5.29,47.25,6.66,47,8,47.25,6.66,47.51,5.29,47.78,3.93Z"/><path class="cls-3" d="M57.46,55.13c.19-1.36.37-2.73.56-4.1C57.83,52.4,57.65,53.82,57.46,55.13Z"/><path class="cls-3" d="M58.89,13,60,12Z"/></g></g></svg>