<svg id="Layer_1" data-name="Layer 1" xmlns="http://www.w3.org/2000/svg" viewBox="0 0 680.48 188"><defs><style>.cls-1{fill:#c49aec;}.cls-2{fill:#c49bec;}.cls-3{fill:#c79fed;stroke:#c79fed;stroke-miterlimit:10;stroke-width:5px;}.cls-4{fill:#e8d9f7;}.cls-5{fill:#ede1f9;}.cls-6{fill:#e0cbf5;}</style></defs><path class="cls-1" d="M284.56,74.91,266.09,122.1c-2,5.11-4.34,10.12-5.92,15.35-1.25,4.17-3.53,5.55-7.65,5.09-2.63-.29-5.32,0-8-.06-8.52-.19-6.73,1.5-8.2-6.94-4.85-28-9.31-56-13.88-84-.51-3.08-.77-6.19-1.21-9.84,6.8,0,13.28-.45,19.64.28,1.88.22,4.54,3.6,4.86,5.82,1.77,12.47,2.78,25,4.37,37.54,1,7.9,2.56,15.73,4.08,24.79,3.49-9,6.66-17.14,9.73-25.26,4.65-12.29,9.17-24.62,13.86-36.89,2.27-6,8.18-8.2,16-6.31,4.09,1,5.46,4.82,5.77,10.86.34,6.61,2,13.15,2.92,19.75.72,5.21,1.08,10.49,1.84,15.7.94,6.4,2.13,12.76,3.22,19.13h1.28c3.08-8.32,6.19-16.63,9.23-25,4.05-11.06,8.1-22.13,12-33.23,1.78-5,5.08-7.56,10.47-7.47,5,.08,9.94,0,15.92,0-1.39,4.31-2.34,8-3.76,11.55-7.25,18-14.63,36-22,54-4.22,10.37-8.56,20.7-12.55,31.16-1.28,3.36-3,4.68-6.58,4.33a36.61,36.61,0,0,0-9.47,0c-5.44.9-7.16-1.57-7.83-6.51-2.56-18.91-5.38-37.77-8.16-56.64A29.55,29.55,0,0,0,284.56,74.91Z" transform="translate(0 2.51)"/><path class="cls-1" d="M57.46,73.61c-1,3.86-4,4-7.08,4H11.49V105.2c1.61.09,3.36.27,5.11.27H49.09c8.26,0,8.9.72,9,9.25.2,11.48.49,22.95.77,34.42a27.38,27.38,0,0,0,.37,3.15H85.72c.37-4.34,1-8.58,1-12.83q.27-13.74,0-27.49c-.08-4.77,2.08-6.56,6.63-6.53,11.5.09,23,0,34.49,0h5.68V77.56H119.06c-8.67,0-17.33,0-26,0-4.12,0-6.18-1.82-6.17-6,0-7.84,0-15.67-.06-23.5,0-3.39,1.23-5.47,4.84-5.53,3.8-.06,6.08,1.94,6.22,5.65C98.11,54,98,59.8,98,66.47h7.77c10.83,0,21.66.14,32.49-.06,4.68-.09,6.87,1.86,6.88,6.39,0,12.66.07,25.33,0,38,0,4.6-2.38,6.53-8.08,6.57-12.66.08-25.32,0-38-.07-.6.2-1.73.4-1.72.59.15,7.87.39,15.73.63,23.6,0,5.16.11,10.32,0,15.47-.09,5.52-2.07,7.49-7.56,7.52q-17.73.08-35.45,0c-5.72,0-7.77-2-7.82-7.81C47,145.52,47,134.37,47,123.22v-6.59H5.52C2,116.63,0,114.9,0,111.14V71.7c0-3.84,2.2-5.21,5.75-5.27,11.63-.2,23.26-.48,34.88-.71H47V26.51c.26-1.37.52-2.74.79-4.1,1-3.32,3.52-3.95,6.62-3.93q17.92.11,35.84,0c4.16,0,7.35,1.19,7.57,5.87.25,5.16-3.88,5.85-7.47,5.95-10.12.28-20.24.12-30.36.14l-1.09,1c-.28,5.25-.7,10.49-.8,15.75C57.92,54.62,58,62.07,58,69.5,57.83,70.88,57.65,72.3,57.46,73.61Z" transform="translate(0 2.51)"/><path class="cls-1" d="M467.81,40.3c9.69,0,18.42,2.55,25.94,8.8,4.89,4.07,5.11,6.19,1,10.93-1.3,1.51-2.76,2.89-4.12,4.35-2.41,2.6-5,2.8-8.05,1C462,53.3,441,63.94,437.72,87.72c-.85,6.16-2.16,12-.45,18.18,5,18,20.05,22.55,34.65,14.12,8.06-4.65,7.77-5.16,13.77,1.91,4.35,5.12,4.41,5.25-.68,10-17.31,16-50.74,17.35-65-6.37-7-11.6-7.93-24.47-5.69-37.66,4.19-24.75,20.4-41.64,45-46.74A80.57,80.57,0,0,1,467.81,40.3Z" transform="translate(0 2.51)"/><path class="cls-1" d="M535.94,133.07c-5.36,3.16-10.44,6.76-16,9.32-9.11,4.18-21.14-1.83-24.58-15.31C488.3,99.4,510.81,70,539.49,69.56c6.27-.09,12.58.78,18.85,1.4,3.49.35,5.38,2.16,4.66,6.06-1.32,7.12-2.69,14.25-3.62,21.43-.77,5.91-.78,11.93-1.42,17.86-.83,7.71-1.89,15.4-3,23.07a4.34,4.34,0,0,1-2.37,2.77C543.58,145.76,536.77,141.68,535.94,133.07Zm6.44-48.63c-3.92.19-5.93,0-7.78.43-17.17,4.23-21.6,26.07-17.17,37.81a5.8,5.8,0,0,0,9.8,2.07c2.67-2.63,5.65-5.63,6.74-9,3.16-9.87,5.44-20,8.41-31.31Z" transform="translate(0 2.51)"/><path class="cls-1" d="M638.85,114.83c-.64,5.18,2.21,9.23,7.68,11.13a18.48,18.48,0,0,0,8.9,1c2.79-.5,5.34-2.5,7.94-3.94,7-3.87,8.28-3.52,13.68,2.06,3,3.07,2,5.13-.74,7.37-6.14,5-13,7.72-20.88,9.59s-14.82,1.48-21.93-1.93a26,26,0,0,1-15-20.4c-3-19.87,6-40.16,24.91-48,9.53-3.95,19.21-4.4,28.73,1.21,8.33,4.92,9.1,12.43,7.89,20.56a15.73,15.73,0,0,1-10.75,12.59C659.34,109.49,649.12,111.93,638.85,114.83Zm2.1-14.71c3.06-.59,5.78-.93,8.39-1.67,2.83-.8,6-1.41,8.21-3.14,2-1.58,4-4.51,4.09-6.92.15-3.35-3-4.09-6.16-4C648.19,84.55,641.72,91.3,641,100.12Z" transform="translate(0 2.51)"/><path class="cls-1" d="M364.11,113.8c1.27,3.39,1.66,6.87,3.56,9,4.26,4.82,12.25,5.5,18.41,2.34,2.07-1.06,4-2.48,6-3.49,4.51-2.18,12.21,2,12.63,7a4.19,4.19,0,0,1-1.55,2.88c-11.78,10-25,15.08-40.36,10.2-13.7-4.34-19.61-16.49-19.38-29.44A45.28,45.28,0,0,1,359.15,78c10.58-9.41,28.63-10.78,40.09-4,9.67,5.74,9.26,26.28-.26,30-8.14,3.16-16.48,5.82-24.82,8.4C371.24,113.3,368,113.3,364.11,113.8Zm19.24-29.27c-7.55-.13-16.75,8-16.88,13.55,0,.71,1.49,2.18,1.93,2,5.52-1.57,11.18-3,16.35-5.36,1.65-.76,2.94-4.52,2.6-6.62C387.08,86.44,384.13,85.17,383.35,84.53Z" transform="translate(0 2.51)"/><path class="cls-2" d="M574.79,90.3c.11-1.93.23-3.87.34-5.81l.66-2.19c.08-1.33.19-2.66.25-4,.36-8.59.35-8.59,8.64-8.57s9.23,1.08,9.44,9c0,1.11.21,2.22.43,4.41,7.49-6.89,13-17.32,25.05-11.38-1.24,6.87-2.37,13.18-3.51,19.47-12.4-2.35-16-1.08-19.91,10.21-2.88,8.33-3.55,17.44-5.17,26.2-.79,4.31-1.49,8.62-2.34,13.52H569.1v-6.71l.15-2,2.85-23c0-.67.11-1.33.16-2,.28-2,.55-4,.83-6,.23-1.07.47-2.13.7-3.2l.3-4.8Z" transform="translate(0 2.51)"/><path class="cls-3" d="M182.29,183V0h1.11V183Z" transform="translate(0 2.51)"/><path class="cls-4" d="M47.78,22.41c-.27,1.36-.53,2.73-.79,4.1C47.25,25.14,47.51,23.77,47.78,22.41Z" transform="translate(0 2.51)"/><path class="cls-5" d="M57.46,73.61c.19-1.36.37-2.73.56-4.1C57.83,70.88,57.65,72.3,57.46,73.61Z" transform="translate(0 2.51)"/><path class="cls-6" d="M574.79,90.3c-.23,1.07-.47,2.13-.7,3.2C574.32,92.45,574.56,91.39,574.79,90.3Z" transform="translate(0 2.51)"/><path class="cls-6" d="M573.79,98.3c-.23,1.07-.47,2.13-.7,3.2C573.32,100.45,573.56,99.39,573.79,98.3Z" transform="translate(0 2.51)"/><path class="cls-6" d="M575.79,82.3l-.66,2.19Z" transform="translate(0 2.51)"/><path class="cls-6" d="M572.26,107.52c0,.67-.11,1.33-.16,2C572.15,108.85,572.21,108.19,572.26,107.52Z" transform="translate(0 2.51)"/><path class="cls-6" d="M569.25,132.52l-.15,2Z" transform="translate(0 2.51)"/><path class="cls-5" d="M58.89,31.45l1.09-1Z" transform="translate(0 2.51)"/></svg>